<svg width="31" height="26" viewBox="0 0 31 26" fill="none" xmlns="http://www.w3.org/2000/svg">
<path d="M17.3943 1.45966L29.9855 22.6445C30.1775 22.9675 30.2786 23.334 30.2786 23.707C30.2786 24.08 30.1775 24.4464 29.9855 24.7695C29.7935 25.0925 29.5174 25.3608 29.1849 25.5473C28.8523 25.7338 28.4751 25.832 28.0911 25.832H2.90864C2.52465 25.832 2.14744 25.7338 1.81491 25.5473C1.48237 25.3608 1.20623 25.0925 1.01425 24.7695C0.82226 24.4464 0.721189 24.08 0.721191 23.707C0.721194 23.334 0.82227 22.9675 1.01426 22.6445L13.6055 1.45966C14.447 0.0429891 16.5513 0.0429891 17.3943 1.45966ZM15.4999 3.93882L4.17155 22.9987H26.8282L15.4999 3.93882ZM15.4999 18.25C15.8867 18.25 16.2576 18.3992 16.5311 18.6649C16.8046 18.9306 16.9582 19.2909 16.9582 19.6667C16.9582 20.0424 16.8046 20.4027 16.5311 20.6684C16.2576 20.9341 15.8867 21.0833 15.4999 21.0833C15.1131 21.0833 14.7422 20.9341 14.4687 20.6684C14.1952 20.4027 14.0416 20.0424 14.0416 19.6667C14.0416 19.2909 14.1952 18.9306 14.4687 18.6649C14.7422 18.3992 15.1131 18.25 15.4999 18.25ZM15.4999 8.33332C15.8867 8.33332 16.2576 8.48258 16.5311 8.74825C16.8046 9.01393 16.9582 9.37427 16.9582 9.74999V15.4167C16.9582 15.7924 16.8046 16.1527 16.5311 16.4184C16.2576 16.6841 15.8867 16.8333 15.4999 16.8333C15.1131 16.8333 14.7422 16.6841 14.4687 16.4184C14.1952 16.1527 14.0416 15.7924 14.0416 15.4167V9.74999C14.0416 9.37427 14.1952 9.01393 14.4687 8.74825C14.7422 8.48258 15.1131 8.33332 15.4999 8.33332Z" fill="white"/>
</svg>
